<mxfile host="app.diagrams.net" agent="Mozilla/5.0 (Windows NT 10.0; Win64; x64) AppleWebKit/537.36 (KHTML, like Gecko) Chrome/140.0.0.0 Safari/537.36 Edg/140.0.0.0" version="28.2.5">
  <diagram name="Página-1" id="X_a13GUg6W_vI226wzhd">
    <mxGraphModel dx="695" dy="778" grid="1" gridSize="10" guides="1" tooltips="1" connect="1" arrows="1" fold="1" page="1" pageScale="1" pageWidth="827" pageHeight="1169" math="0" shadow="0">
      <root>
        <mxCell id="0" />
        <mxCell id="1" parent="0" />
        <mxCell id="8uMRqK_gFg4mQVt6ZoXD-3" value="" style="edgeStyle=orthogonalEdgeStyle;rounded=0;orthogonalLoop=1;jettySize=auto;html=1;" edge="1" parent="1" source="8uMRqK_gFg4mQVt6ZoXD-1" target="8uMRqK_gFg4mQVt6ZoXD-2">
          <mxGeometry relative="1" as="geometry" />
        </mxCell>
        <mxCell id="8uMRqK_gFg4mQVt6ZoXD-1" value="Inicio" style="ellipse;whiteSpace=wrap;html=1;" vertex="1" parent="1">
          <mxGeometry x="354" y="40" width="120" height="80" as="geometry" />
        </mxCell>
        <mxCell id="8uMRqK_gFg4mQVt6ZoXD-5" value="" style="edgeStyle=orthogonalEdgeStyle;rounded=0;orthogonalLoop=1;jettySize=auto;html=1;" edge="1" parent="1" source="8uMRqK_gFg4mQVt6ZoXD-2" target="8uMRqK_gFg4mQVt6ZoXD-4">
          <mxGeometry relative="1" as="geometry" />
        </mxCell>
        <mxCell id="8uMRqK_gFg4mQVt6ZoXD-2" value="CS = 1&lt;div&gt;CB = 0.8&lt;/div&gt;&lt;div&gt;CR = 1.5&lt;/div&gt;&lt;div&gt;CC = 0.6&lt;/div&gt;" style="rounded=0;whiteSpace=wrap;html=1;" vertex="1" parent="1">
          <mxGeometry x="344" y="180" width="140" height="70" as="geometry" />
        </mxCell>
        <mxCell id="8uMRqK_gFg4mQVt6ZoXD-7" value="" style="edgeStyle=orthogonalEdgeStyle;rounded=0;orthogonalLoop=1;jettySize=auto;html=1;" edge="1" parent="1" source="8uMRqK_gFg4mQVt6ZoXD-4" target="8uMRqK_gFg4mQVt6ZoXD-6">
          <mxGeometry relative="1" as="geometry" />
        </mxCell>
        <mxCell id="8uMRqK_gFg4mQVt6ZoXD-4" value="Ler Quantidades&lt;div&gt;Ler Preço que vendeu&lt;/div&gt;" style="shape=parallelogram;perimeter=parallelogramPerimeter;whiteSpace=wrap;html=1;fixedSize=1;rounded=0;" vertex="1" parent="1">
          <mxGeometry x="316" y="335" width="196" height="60" as="geometry" />
        </mxCell>
        <mxCell id="8uMRqK_gFg4mQVt6ZoXD-9" value="" style="edgeStyle=orthogonalEdgeStyle;rounded=0;orthogonalLoop=1;jettySize=auto;html=1;" edge="1" parent="1" source="8uMRqK_gFg4mQVt6ZoXD-6" target="8uMRqK_gFg4mQVt6ZoXD-8">
          <mxGeometry relative="1" as="geometry" />
        </mxCell>
        <mxCell id="8uMRqK_gFg4mQVt6ZoXD-6" value="Lucro = ((PVS - CS)*QS) + ((PVB-CB)*QB) + ((PVR-CR)*QR)+((PVC-CC)*QC)" style="whiteSpace=wrap;html=1;rounded=0;" vertex="1" parent="1">
          <mxGeometry x="254.5" y="470" width="319" height="60" as="geometry" />
        </mxCell>
        <mxCell id="8uMRqK_gFg4mQVt6ZoXD-11" value="" style="edgeStyle=orthogonalEdgeStyle;rounded=0;orthogonalLoop=1;jettySize=auto;html=1;" edge="1" parent="1" source="8uMRqK_gFg4mQVt6ZoXD-8" target="8uMRqK_gFg4mQVt6ZoXD-10">
          <mxGeometry relative="1" as="geometry" />
        </mxCell>
        <mxCell id="8uMRqK_gFg4mQVt6ZoXD-8" value="Escrever Lucro" style="shape=parallelogram;perimeter=parallelogramPerimeter;whiteSpace=wrap;html=1;fixedSize=1;rounded=0;" vertex="1" parent="1">
          <mxGeometry x="354" y="610" width="120" height="60" as="geometry" />
        </mxCell>
        <mxCell id="8uMRqK_gFg4mQVt6ZoXD-10" value="Fim" style="ellipse;whiteSpace=wrap;html=1;" vertex="1" parent="1">
          <mxGeometry x="354" y="720" width="120" height="80" as="geometry" />
        </mxCell>
      </root>
    </mxGraphModel>
  </diagram>
</mxfile>
